<svg width="34" height="36" viewBox="0 0 34 36" fill="none" xmlns="http://www.w3.org/2000/svg">
<path d="M20.1339 14.419L20.1338 14.4191L13.7199 22.0207C13.7198 22.0207 13.7198 22.0208 13.7198 22.0208C13.4085 22.3896 13.2501 22.8664 13.25 23.3422V23.3424V30.8149C13.25 30.8999 13.2335 30.9804 13.2052 31.0491C13.1769 31.1178 13.1402 31.1669 13.106 31.1986C13.0723 31.2297 13.0434 31.2421 13.0246 31.2469C13.0067 31.2513 12.9895 31.2511 12.9705 31.2455L12.9701 31.2454L10.9705 30.6529C10.9419 30.6444 10.889 30.6162 10.838 30.5389C10.7864 30.4605 10.75 30.349 10.75 30.2223V23.3424V23.3422C10.7499 22.8663 10.5914 22.3895 10.2801 22.0207L3.86622 14.4191L3.86614 14.419C3.80236 14.3434 3.75006 14.2175 3.75 14.0648C3.75 14.0648 3.75 14.0648 3.75 14.0647V12.1852C3.75 12.0325 3.8023 11.9064 3.86611 11.8308C3.9267 11.759 3.9788 11.75 4 11.75H20C20.0212 11.75 20.0733 11.759 20.1339 11.8308C20.1977 11.9064 20.25 12.0325 20.25 12.1852V14.0647C20.25 14.0648 20.25 14.0648 20.25 14.0648C20.2499 14.2175 20.1976 14.3435 20.1339 14.419Z" stroke="#42434B" stroke-width="1.5" stroke-linecap="round" stroke-linejoin="round"/>
<rect x="13" width="21" height="21" rx="10.5" fill="#E10D34"/>
<path d="M23.237 16V7.068L21.34 8.209V7.054L23.237 5.92H24.28V16H23.237Z" fill="white"/>
</svg>
